# xmcd
#
# Track frame offsets: 
#        150
#        19128
#        34710
#        57585
#        70370
#        84320
#        95948
#        112223
#        131527
#        154770
#        168495
#        198113
#        223388
#        239507
#        257980
#        272289
#        287004
#        311604
#        325054
#        337186
#
# Disc length: 4694 seconds
#
# Revision: 0
# Processed by: cddbd v1.5.2PL0 Copyright (c) Steve Scherf et al.
# Submitted via: ExactAudioCopy v0.95b4
#
DISCID=36125414
DTITLE=Various Artist - 101PubSongs
DYEAR=2012
DGENRE=Celtic
TTITLE0=WhenYouWereSweetSixteen 01
TTITLE1=OldMaidInTheGarret 02
TTITLE2=Carrickfergus 03
TTITLE3=TheRoseOfTralee 04
TTITLE4=GalwayBay 05
TTITLE5=PubWithNoBeer 06
TTITLE6=TheRooster 07
TTITLE7=I'llTakeYouhomeAgain 08
TTITLE8=DonegalDanny 09
TTITLE9=TheWildColonialBoy 10
TTITLE10=TheBandPlayedWaltzingmatilda 11
TTITLE11=SomeSayTheDevilIsDead 12
TTITLE12=LiverpoolLou 13
TTITLE13=DungarvanMyHometown14
TTITLE14=IfYou'reIrish 15
TTITLE15=TheAuldTriangle 16
TTITLE16=TheBlackVelvetBand 17
TTITLE17=SpanishLady 18
TTITLE18=TheMerryPloughboy 19
TTITLE19=SevenDrunkenNights 20
EXTD=
EXTT0=
EXTT1=
EXTT2=
EXTT3=
EXTT4=
EXTT5=
EXTT6=
EXTT7=
EXTT8=
EXTT9=
EXTT10=
EXTT11=
EXTT12=
EXTT13=
EXTT14=
EXTT15=
EXTT16=
EXTT17=
EXTT18=
EXTT19=
PLAYORDER=
